<?xml version="1.0" standalone="no"?>
<!DOCTYPE svg PUBLIC "-//W3C//DTD SVG 20010904//EN"
 "http://www.w3.org/TR/2001/REC-SVG-20010904/DTD/svg10.dtd">
<svg version="1.0" xmlns="http://www.w3.org/2000/svg"
 width="212.000000pt" height="160.000000pt" viewBox="0 0 212.000000 160.000000"
 preserveAspectRatio="xMidYMid meet">

<g transform="translate(0.000000,160.000000) scale(0.100000,-0.100000)"
fill="#000000" stroke="none">
<path d="M0 1531 l0 -71 50 0 c38 0 50 4 50 15 0 8 7 15 16 15 10 0 14 -6 10
-15 -3 -8 -1 -15 4 -15 6 0 10 -4 10 -8 0 -5 -26 -8 -57 -7 -32 0 -64 -1 -70
-3 -9 -3 -13 -28 -13 -82 0 -77 0 -78 28 -83 16 -3 45 -4 65 -2 20 1 37 -1 37
-7 0 -5 7 -3 15 6 8 8 15 19 15 25 0 6 5 11 10 11 6 0 10 5 10 11 0 5 -5 7
-10 4 -15 -9 -12 4 5 21 15 16 20 9 16 -23 -1 -7 3 -13 9 -13 5 0 10 12 10 26
0 20 4 24 19 19 10 -3 23 1 30 9 7 8 26 18 42 21 16 4 29 11 29 16 0 5 5 9 11
9 7 0 9 -10 5 -26 -5 -19 -4 -24 6 -17 7 4 15 8 18 9 20 4 52 23 40 24 -12 0
-12 2 -2 9 10 6 10 10 -3 21 -13 11 -15 9 -15 -9 0 -11 -5 -21 -11 -21 -6 0
-9 8 -7 18 3 10 -1 23 -8 30 -7 6 -16 43 -20 82 -3 38 -9 70 -13 70 -12 0 -33
-61 -26 -78 4 -9 9 -30 12 -45 4 -25 2 -27 -14 -17 -27 17 -32 126 -6 133 10
2 1 4 -19 3 -33 -1 -69 -16 -39 -16 7 0 9 -4 6 -10 -10 -16 -23 -12 -30 11 -5
16 -10 18 -20 9 -8 -7 -19 -9 -25 -5 -5 3 -10 -1 -10 -9 0 -9 -8 -16 -18 -16
-10 0 -23 -5 -30 -12 -9 -9 -12 -9 -12 0 0 6 -7 9 -15 6 -8 -4 -31 6 -50 20
l-35 27 0 -70z m170 -51 c0 -5 -4 -10 -9 -10 -6 0 -13 5 -16 10 -3 6 1 10 9
10 9 0 16 -4 16 -10z m63 -9 c6 9 18 14 25 12 8 -3 5 -11 -10 -24 l-23 -19 27
10 c16 5 30 6 33 0 3 -5 -10 -12 -30 -16 -29 -5 -39 -2 -55 16 -11 12 -17 27
-14 32 3 5 12 1 20 -9 13 -16 15 -17 27 -2z m-49 -29 c3 -5 -1 -9 -9 -9 -8 0
-12 4 -9 9 3 4 7 8 9 8 2 0 6 -4 9 -8z m146 -17 c0 -10 -10 -15 -29 -15 -17 0
-33 -4 -36 -10 -8 -12 -25 -13 -25 -1 0 8 64 39 83 40 4 1 7 -6 7 -14z m30 5
c0 -5 -2 -10 -4 -10 -3 0 -8 5 -11 10 -3 6 -1 10 4 10 6 0 11 -4 11 -10z"/>
<path d="M371 1573 c0 -25 1 -26 9 -8 8 19 9 19 9 -2 1 -12 -2 -29 -6 -39 -6
-16 -7 -16 -14 2 -6 15 -8 12 -8 -13 -1 -42 16 -51 26 -14 6 24 11 28 23 21
10 -6 11 -10 3 -10 -7 0 -13 -10 -13 -22 1 -20 2 -21 10 -6 8 13 22 16 64 14
30 -1 62 -8 71 -16 13 -11 15 -10 8 6 -3 10 -11 23 -17 27 -7 6 -4 7 6 4 9 -3
34 6 55 21 30 21 47 26 81 24 37 -3 42 -6 42 -28 0 -13 7 -27 16 -31 8 -3 13
-11 10 -18 -3 -8 6 -16 20 -19 29 -8 44 -1 44 20 0 8 5 14 10 14 6 0 8 10 4
24 -4 17 0 27 13 34 17 10 17 11 -2 26 -29 21 -355 23 -355 2 0 -8 5 -16 12
-18 6 -2 8 -9 5 -15 -5 -8 -16 -8 -39 0 -24 9 -32 9 -35 0 -8 -24 -23 -13 -23
17 0 20 -5 30 -15 30 -10 0 -15 -9 -14 -27z m397 -5 c-7 -19 -38 -22 -38 -4 0
10 9 16 21 16 12 0 19 -5 17 -12z"/>
<path d="M990 1590 c0 -5 9 -10 19 -10 11 0 23 5 26 10 4 6 -5 10 -19 10 -14
0 -26 -4 -26 -10z"/>
<path d="M1054 1585 c1 -8 12 -24 24 -35 26 -25 29 -42 5 -33 -12 4 -8 -5 11
-25 16 -18 30 -31 31 -29 1 1 5 16 9 32 6 29 6 29 -10 10 -15 -18 -16 -18 -10
-2 3 10 6 21 6 23 0 2 12 4 26 4 16 0 23 -4 18 -12 -4 -7 -3 -8 4 -4 14 8 62
-3 62 -15 0 -5 -12 -9 -27 -9 l-28 -1 25 -14 c14 -8 39 -14 57 -15 17 0 35 -4
38 -10 3 -5 13 -10 22 -10 8 0 25 -8 38 -19 18 -13 21 -21 12 -30 -8 -8 -5
-11 12 -11 22 0 23 3 18 40 -3 22 -1 40 4 40 5 0 9 -8 9 -19 0 -18 3 -18 66
-5 36 8 74 18 84 24 28 15 40 12 40 -9 0 -18 3 -18 46 -5 36 11 51 11 67 2 12
-7 27 -13 32 -15 6 -1 27 -6 48 -12 43 -10 59 -21 33 -21 -10 0 -14 -5 -11
-11 4 -6 13 -8 21 -5 8 3 11 0 7 -10 -3 -9 2 -14 16 -14 23 0 134 -57 139 -71
2 -5 21 -9 43 -9 28 0 39 -4 39 -15 0 -8 9 -15 20 -15 19 0 20 7 20 145 0 80
-2 145 -5 145 -3 0 -19 -15 -35 -32 -27 -30 -29 -31 -30 -11 0 24 21 49 50 58
11 3 20 15 20 26 0 19 -13 19 -534 19 -469 0 -534 -2 -532 -15z m976 -93 c0
-5 -6 -17 -14 -28 -19 -25 -31 -12 -14 15 13 21 28 28 28 13z m-700 -33 c0 -5
-4 -9 -10 -9 -5 0 -10 7 -10 16 0 8 5 12 10 9 6 -3 10 -10 10 -16z"/>
<path d="M1050 1470 c-19 -12 -7 -23 30 -25 31 -2 42 18 15 29 -8 3 -15 0 -15
-7 0 -9 -2 -9 -8 0 -5 8 -13 9 -22 3z"/>
<path d="M812 1455 l-24 -13 23 -16 c33 -23 39 -20 39 14 0 33 -4 34 -38 15z"/>
<path d="M1687 1420 c-3 -11 -3 -20 -1 -20 2 0 8 9 14 20 6 11 7 20 2 20 -6 0
-12 -9 -15 -20z"/>
<path d="M1180 1386 c0 -8 7 -16 15 -20 8 -3 15 -15 15 -26 0 -15 7 -20 25
-20 27 0 71 -23 92 -48 6 -7 22 -15 35 -17 13 -1 37 -5 53 -9 17 -3 24 -3 18
0 -18 8 -16 24 2 24 22 0 18 33 -5 53 -11 9 -22 17 -25 17 -2 0 -16 11 -30 24
-24 22 -65 26 -65 6 0 -9 -99 -4 -108 5 -4 3 0 10 8 15 12 8 10 10 -7 10 -13
0 -23 -6 -23 -14z"/>
<path d="M310 1360 c0 -5 5 -10 11 -10 5 0 7 5 4 10 -3 6 -8 10 -11 10 -2 0
-4 -4 -4 -10z"/>
<path d="M364 1349 c-12 -21 9 -58 37 -64 34 -8 105 -8 134 -1 11 2 24 5 29 5
5 1 -3 13 -18 27 -14 15 -26 30 -26 33 0 10 -150 9 -156 0z m63 -15 c-3 -3
-12 -4 -19 -1 -8 3 -5 6 6 6 11 1 17 -2 13 -5z"/>
<path d="M1035 1339 c-4 -6 0 -18 9 -27 15 -15 16 -15 16 5 0 25 -15 38 -25
22z"/>
<path d="M1896 1311 c-23 -26 -75 -53 -87 -45 -5 3 -9 12 -9 21 0 12 -3 13
-14 4 -11 -9 -20 -10 -36 -1 -29 16 -42 4 -28 -25 12 -27 23 -31 33 -15 4 7
11 8 18 1 12 -9 56 -14 109 -12 32 1 47 25 39 65 l-6 28 -19 -21z"/>
<path d="M8 1263 c7 -3 16 -2 19 1 4 3 -2 6 -13 5 -11 0 -14 -3 -6 -6z"/>
<path d="M80 1250 c0 -5 6 -10 14 -10 8 0 18 5 21 10 3 6 -3 10 -14 10 -12 0
-21 -4 -21 -10z"/>
<path d="M18 1243 c-24 -6 -22 -17 5 -31 30 -14 77 -21 77 -11 0 5 -11 9 -25
9 -15 0 -25 6 -25 14 0 18 -10 24 -32 19z"/>
<path d="M1025 1230 c-3 -5 -1 -10 4 -10 6 0 11 5 11 10 0 6 -2 10 -4 10 -3 0
-8 -4 -11 -10z"/>
<path d="M1080 1198 c0 -9 15 -14 40 -14 52 -2 48 20 -3 24 -25 1 -37 -2 -37
-10z"/>
<path d="M1038 1193 c7 -3 16 -2 19 1 4 3 -2 6 -13 5 -11 0 -14 -3 -6 -6z"/>
<path d="M58 1183 c7 -3 16 -2 19 1 4 3 -2 6 -13 5 -11 0 -14 -3 -6 -6z"/>
<path d="M413 1093 c9 -2 23 -2 30 0 6 3 -1 5 -18 5 -16 0 -22 -2 -12 -5z"/>
<path d="M37 1053 c-10 -3 -17 -12 -16 -21 3 -35 -2 -48 -12 -27 -8 18 -8 18
-6 -5 2 -23 7 -25 62 -31 l60 -6 -62 -1 -63 -2 0 -109 c0 -106 1 -110 22 -114
l23 -4 -22 -2 -23 -1 0 -365 0 -365 1060 0 1060 0 0 470 0 470 -22 -4 c-71
-15 -100 -17 -93 -7 4 8 -1 8 -17 2 -45 -17 -119 -22 -135 -10 -11 10 -16 10
-23 0 -9 -16 -80 -25 -80 -11 0 6 8 10 17 10 28 0 3 15 -28 16 -26 1 -27 0
-13 -11 14 -10 14 -14 4 -20 -9 -5 -15 -4 -18 3 -2 7 -17 12 -33 12 -18 0 -28
-4 -24 -10 9 -14 -38 -13 -70 2 -18 8 -29 8 -33 2 -13 -20 -41 -22 -94 -8 -29
7 -64 13 -78 13 -17 -1 -19 -3 -7 -6 9 -2 17 -9 17 -15 0 -6 -9 -8 -22 -4 -13
4 -69 8 -126 10 -72 3 -110 9 -127 20 -17 11 -56 17 -134 20 -61 3 -114 7
-118 9 -5 3 -105 8 -223 11 -118 4 -224 9 -237 12 -14 4 -29 0 -40 -11 -13
-14 -28 -16 -71 -12 -54 6 -78 16 -56 24 13 4 7 43 -7 43 -5 0 -9 -10 -9 -21
0 -16 -3 -19 -12 -11 -17 13 -70 13 -87 -2 -12 -8 -13 -8 -7 2 5 8 0 12 -17
12 -20 0 -24 4 -20 20 3 11 0 20 -6 20 -6 0 -11 -7 -11 -15 0 -8 -4 -15 -10
-15 -6 0 -6 9 0 25 5 14 8 24 7 24 -1 -1 -10 -3 -20 -6z m180 -87 c3 -3 -16
-6 -43 -5 -35 0 -43 3 -29 8 22 9 62 7 72 -3z m196 -23 c-7 -2 -21 -2 -30 0
-10 3 -4 5 12 5 17 0 24 -2 18 -5z m77 -3 c22 -7 21 -8 -12 -9 -21 -1 -38 4
-38 9 0 11 14 11 50 0z m327 -30 c23 -6 78 -11 122 -13 68 -2 83 -6 101 -25
19 -20 31 -22 118 -23 53 0 111 -3 127 -5 17 -2 49 -6 72 -10 24 -3 45 -10 49
-15 3 -6 17 -8 29 -5 13 3 26 2 29 -2 3 -5 38 -9 77 -10 40 -1 75 -5 78 -8 3
-4 -52 -3 -124 1 -187 11 -451 14 -465 5 -11 -7 182 -25 275 -25 136 -1 425
-19 425 -26 0 -5 -10 -7 -22 -5 -31 7 -673 18 -667 12 2 -3 25 -6 49 -7 25 -2
56 -9 70 -16 24 -13 24 -13 -15 -14 -31 0 -36 -2 -20 -9 31 -13 -74 -4 -113
10 -18 7 -44 9 -58 6 -30 -8 -94 3 -94 15 0 5 10 9 23 9 17 1 19 2 7 9 -23 13
-76 20 -200 26 -151 7 -211 15 -204 26 3 5 14 9 25 9 10 0 19 5 19 10 0 6 -12
8 -27 4 -20 -4 -24 -3 -14 4 11 8 9 11 -10 14 -13 2 36 4 108 4 124 -1 160 5
113 17 -30 8 -24 24 10 32 17 4 30 11 30 16 0 6 8 8 18 5 9 -3 36 -10 59 -16z
m331 -22 c-2 -6 -10 -14 -16 -16 -7 -2 -10 2 -6 12 7 18 28 22 22 4z m-835
-25 c-7 -2 -21 -2 -30 0 -10 3 -4 5 12 5 17 0 24 -2 18 -5z m152 -33 c-3 -5
-18 -10 -33 -10 -21 0 -24 2 -12 10 20 13 53 13 45 0z m-108 -6 c-3 -3 -12 -4
-19 -1 -8 3 -5 6 6 6 11 1 17 -2 13 -5z m-32 -14 c3 -6 -1 -7 -9 -4 -18 7 -21
14 -7 14 6 0 13 -4 16 -10z m72 4 c-3 -3 -12 -4 -19 -1 -8 3 -5 6 6 6 11 1 17
-2 13 -5z m1310 -20 c-3 -3 -12 -4 -19 -1 -8 3 -5 6 6 6 11 1 17 -2 13 -5z
m153 -54 c18 -7 12 -8 -24 -5 -26 2 -51 6 -54 9 -8 9 49 5 78 -4z m-600 -4 c0
-11 -19 -15 -25 -6 -3 5 1 10 9 10 9 0 16 -2 16 -4z m783 -3 c-7 -2 -21 -2
-30 0 -10 3 -4 5 12 5 17 0 24 -2 18 -5z m-560 -10 c-24 -2 -62 -2 -85 0 -24
2 -5 4 42 4 47 0 66 -2 43 -4z m-115 -38 c10 -10 -73 -5 -88 6 -11 7 -2 9 34
5 27 -3 51 -8 54 -11z m-638 -35 c0 -6 -8 -10 -17 -10 -16 0 -16 2 -3 11 11 8
6 9 -21 6 -20 -3 -42 -1 -49 3 -9 6 -3 10 21 12 37 4 69 -7 69 -22z m64 5 c25
-9 48 -15 53 -14 18 3 32 -2 46 -15 9 -10 38 -15 78 -16 35 -1 116 -11 179
-21 63 -11 137 -22 164 -24 45 -4 92 -25 56 -25 -9 0 -6 -6 8 -16 12 -8 22
-22 22 -30 0 -14 21 -18 67 -14 17 1 21 -3 17 -14 -5 -12 -21 -16 -63 -17 -31
-1 -59 -1 -63 0 -5 0 -8 -3 -8 -8 0 -13 -58 -41 -84 -41 -17 -1 -16 -3 9 -15
l30 -15 -40 3 c-38 2 -40 1 -43 -30 -3 -29 -7 -33 -33 -33 -30 0 -36 7 -42 47
-2 12 -6 26 -10 29 -11 12 -68 15 -85 5 -17 -10 -12 -12 53 -24 11 -2 -22 -7
-72 -11 -76 -7 -93 -11 -94 -25 0 -13 -2 -12 -8 3 -4 11 -18 20 -32 21 -13 1
-57 7 -96 15 -63 11 -71 15 -60 28 10 13 5 14 -42 8 -51 -7 -53 -6 -48 14 4
14 0 23 -11 26 -9 3 -24 9 -33 14 -10 5 -47 10 -83 11 -36 1 -66 6 -66 11 0 5
-9 7 -19 3 -11 -3 -23 0 -27 6 -5 9 6 10 47 5 51 -7 53 -6 34 9 -14 12 -16 18
-7 21 6 3 10 10 6 15 -9 14 -44 10 -50 -6 -4 -8 -12 -15 -20 -15 -8 0 -11 6
-8 15 5 11 -1 15 -20 15 -14 0 -26 -4 -26 -10 0 -5 -9 -10 -19 -10 -11 0 -21
-6 -24 -12 -2 -7 -2 1 1 17 4 27 32 65 47 65 4 0 3 -9 0 -20 -9 -30 14 -25 25
6 12 32 12 37 1 29 -5 -3 -13 0 -17 6 -9 14 64 3 83 -13 9 -7 15 -6 19 6 4 11
13 15 25 11 11 -4 19 -2 19 4 0 6 -9 11 -19 11 -11 0 -23 5 -26 10 -7 12 67 6
140 -10 41 -9 246 -22 210 -13 -76 18 -95 25 -95 33 0 13 1 13 54 -5z m-650
-24 c-12 -10 -18 -27 -17 -46 l3 -30 -12 25 c-17 35 -18 36 -28 20 -7 -12 -10
-11 -16 5 -5 12 -3 20 5 23 11 4 11 6 0 14 -9 6 -4 7 18 3 18 -4 34 -2 38 5 3
5 11 7 17 4 7 -5 5 -13 -8 -23z m186 19 c13 -8 13 -10 -2 -10 -9 0 -20 5 -23
10 -8 13 5 13 25 0z m-53 -6 c-3 -3 -12 -4 -19 -1 -8 3 -5 6 6 6 11 1 17 -2
13 -5z m100 0 c-3 -3 -12 -4 -19 -1 -8 3 -5 6 6 6 11 1 17 -2 13 -5z m-194
-81 c-7 -2 -19 -2 -25 0 -7 3 -2 5 12 5 14 0 19 -2 13 -5z m67 -13 c0 -5 -5
-10 -11 -10 -5 0 -7 5 -4 10 3 6 8 10 11 10 2 0 4 -4 4 -10z m1313 -57 c-7 -2
-19 -2 -25 0 -7 3 -2 5 12 5 14 0 19 -2 13 -5z m-925 -68 c14 -14 -9 -13 -39
0 l-34 16 34 -6 c19 -3 37 -7 39 -10z m959 9 c-3 -3 -12 -4 -19 -1 -8 3 -5 6
6 6 11 1 17 -2 13 -5z m-1067 -31 c2 -2 -15 -2 -38 -1 -23 2 -42 7 -42 11 0 7
70 -1 80 -10z m34 -44 c-31 -6 -50 3 -40 19 4 7 17 6 37 -1 l31 -12 -28 -6z
m16 -23 c0 -2 -7 -9 -15 -16 -12 -10 -15 -10 -15 4 0 9 7 16 15 16 8 0 15 -2
15 -4z m657 -72 c-3 -3 -12 -4 -19 -1 -8 3 -5 6 6 6 11 1 17 -2 13 -5z m-44
-21 c-7 -2 -21 -2 -30 0 -10 3 -4 5 12 5 17 0 24 -2 18 -5z m-101 -28 c-5 -28
-3 -27 -50 -31 -17 -1 -30 2 -26 7 3 5 16 9 29 9 15 0 26 7 30 20 9 29 23 25
17 -5z m-335 -1 c-3 -3 -12 -4 -19 -1 -8 3 -5 6 6 6 11 1 17 -2 13 -5z m270
-50 c-3 -3 -12 -4 -19 -1 -8 3 -5 6 6 6 11 1 17 -2 13 -5z"/>
<path d="M748 863 c12 -2 30 -2 40 0 9 3 -1 5 -23 4 -22 0 -30 -2 -17 -4z"/>
<path d="M948 863 c6 -2 18 -2 25 0 6 3 1 5 -13 5 -14 0 -19 -2 -12 -5z"/>
<path d="M608 833 c6 -2 18 -2 25 0 6 3 1 5 -13 5 -14 0 -19 -2 -12 -5z"/>
<path d="M808 833 c6 -2 18 -2 25 0 6 3 1 5 -13 5 -14 0 -19 -2 -12 -5z"/>
<path d="M673 813 c9 -2 25 -2 35 0 9 3 1 5 -18 5 -19 0 -27 -2 -17 -5z"/>
<path d="M938 803 c7 -3 16 -2 19 1 4 3 -2 6 -13 5 -11 0 -14 -3 -6 -6z"/>
<path d="M928 753 c6 -2 18 -2 25 0 6 3 1 5 -13 5 -14 0 -19 -2 -12 -5z"/>
<path d="M978 753 c7 -3 16 -2 19 1 4 3 -2 6 -13 5 -11 0 -14 -3 -6 -6z"/>
<path d="M1635 1040 c3 -5 8 -10 11 -10 2 0 4 5 4 10 0 6 -5 10 -11 10 -5 0
-7 -4 -4 -10z"/>
</g>
</svg>
